<svg width="19" height="12" viewBox="0 0 19 12" fill="none" xmlns="http://www.w3.org/2000/svg">
<path d="M9.5 1.1875C11.158 1.18523 12.7867 1.62393 14.2193 2.45862C15.6518 3.29332 16.8366 4.49398 17.6522 5.9375C16.8326 7.37674 15.6467 8.57336 14.2148 9.40574C12.7829 10.2381 11.1562 10.6766 9.5 10.6766C7.84377 10.6766 6.21707 10.2381 4.78521 9.40574C3.35334 8.57336 2.16737 7.37674 1.34781 5.9375C2.16338 4.49398 3.34817 3.29332 4.78071 2.45862C6.21326 1.62393 7.84202 1.18523 9.5 1.1875ZM9.5 0C7.51988 0.00311929 5.58025 0.561051 3.9011 1.61052C2.22196 2.65998 0.870499 4.15898 0 5.9375C0.867988 7.71799 2.21887 9.21871 3.89857 10.2685C5.57828 11.3183 7.51921 11.875 9.5 11.875C11.4808 11.875 13.4217 11.3183 15.1014 10.2685C16.7811 9.21871 18.132 7.71799 19 5.9375C18.1295 4.15898 16.778 2.65998 15.0989 1.61052C13.4198 0.561051 11.4801 0.00311929 9.5 0Z" fill="#504DEE"/>
<path d="M9.49973 2.34824C8.78873 2.34295 8.09219 2.54895 7.49844 2.9401C6.90469 3.33126 6.44049 3.88995 6.16473 4.54531C5.88897 5.20067 5.81407 5.92317 5.94953 6.62116C6.08499 7.31915 6.4247 7.96119 6.92558 8.46583C7.42647 8.97046 8.06594 9.31497 8.7629 9.45564C9.45986 9.59631 10.1829 9.5268 10.8403 9.25595C11.4977 8.98509 12.0598 8.52508 12.4554 7.93428C12.851 7.34347 13.0622 6.64848 13.0622 5.93746C13.0658 5.46739 12.9762 5.00126 12.7988 4.56595C12.6213 4.13064 12.3595 3.73475 12.0283 3.4011C11.6971 3.06746 11.3032 2.80266 10.8692 2.62196C10.4353 2.44126 9.96982 2.34823 9.49973 2.34824ZM8.31223 5.93746C8.07736 5.93746 7.84777 5.86782 7.65249 5.73733C7.45721 5.60685 7.305 5.42139 7.21512 5.2044C7.12524 4.98741 7.10173 4.74865 7.14755 4.51829C7.19337 4.28794 7.30646 4.07635 7.47254 3.91027C7.63861 3.7442 7.85021 3.6311 8.08056 3.58528C8.31091 3.53946 8.54968 3.56298 8.76666 3.65286C8.98365 3.74273 9.16911 3.89494 9.2996 4.09022C9.43008 4.28551 9.49973 4.5151 9.49973 4.74996C9.49973 5.06491 9.37462 5.36695 9.15192 5.58965C8.92922 5.81235 8.62717 5.93746 8.31223 5.93746Z" fill="#504DEE"/>
</svg>
