<svg width="17" height="20" viewBox="0 0 17 20" fill="none" xmlns="http://www.w3.org/2000/svg">
<g clip-path="url(#clip0_4_407)">
<path d="M8.49982 18.75C9.16995 18.75 9.7141 18.1883 9.7141 17.4988H10.9284C10.9284 18.8781 9.83857 20 8.49982 20C7.16107 20 6.07124 18.8781 6.07124 17.4988H7.28553C7.28553 18.1883 7.82968 18.75 8.49982 18.75ZM0.55459 13.0785C1.61557 12.0387 2.42687 10.9504 2.42687 7.26172C2.42687 4.15273 4.83229 1.61719 7.89267 1.31055V0.625C7.89267 0.279687 8.16437 0 8.49982 0C8.83526 0 9.10696 0.279687 9.10696 0.625V1.31094C12.1673 1.61758 14.5728 4.15273 14.5728 7.26172C14.5728 10.95 15.3844 12.0387 16.4454 13.0785C16.9755 13.598 17.1429 14.3836 16.8723 15.0797C16.5961 15.7906 15.9312 16.25 15.1784 16.25H1.82124C1.06839 16.25 0.403563 15.7902 0.127312 15.0793C-0.143246 14.3832 0.024477 13.598 0.55459 13.0785ZM1.82124 15H15.1784C15.7184 15 15.9882 14.3566 15.6079 13.984C14.2851 12.6875 13.3585 11.2363 13.3585 7.26211C13.3585 4.63008 11.1853 2.5 8.49982 2.5C5.81472 2.5 3.64115 4.62969 3.64115 7.26172C3.64115 11.2207 2.72247 12.6797 1.39169 13.9836C1.00995 14.3582 1.28354 15 1.82124 15Z" fill="#C4C4C4"/>
</g>
<defs>
<clipPath id="clip0_4_407">
<rect width="17" height="20" fill="white" transform="matrix(-1 0 0 1 17 0)"/>
</clipPath>
</defs>
</svg>
