<svg width="54" height="54" viewBox="0 0 54 54" fill="none" xmlns="http://www.w3.org/2000/svg">
<rect x="1" y="1" width="52" height="52" stroke="#19191C" stroke-width="2"/>
<path d="M38.0625 43C37.3721 43 36.8125 42.4404 36.8125 41.75C36.8125 36.8563 32.8312 32.875 27.9375 32.875H26.0625C21.1688 32.875 17.1875 36.8563 17.1875 41.75C17.1875 42.4404 16.6279 43 15.9375 43C15.2471 43 14.6875 42.4404 14.6875 41.75C14.6875 35.4778 19.7903 30.375 26.0625 30.375H27.9375C34.2097 30.375 39.3125 35.4778 39.3125 41.75C39.3125 42.4404 38.7529 43 38.0625 43Z" fill="#19191C"/>
<path d="M26.875 27.875C22.2226 27.875 18.4375 24.0899 18.4375 19.4375C18.4375 14.7851 22.2226 11 26.875 11C31.5274 11 35.3125 14.7851 35.3125 19.4375C35.3125 24.0899 31.5274 27.875 26.875 27.875ZM26.875 13.5C23.6011 13.5 20.9375 16.1636 20.9375 19.4375C20.9375 22.7114 23.6011 25.375 26.875 25.375C30.1489 25.375 32.8125 22.7114 32.8125 19.4375C32.8125 16.1636 30.1489 13.5 26.875 13.5Z" fill="#19191C"/>
</svg>
